<svg xmlns="http://www.w3.org/2000/svg" viewBox="0 0 154.82 247.83"><defs><style>.cls-1{fill:#fff;stroke:#fff;stroke-miterlimit:10;stroke-width:10px;}</style></defs><title>logo_light</title><g id="Layer_2" data-name="Layer 2"><g id="Layer_3" data-name="Layer 3"><path class="cls-1" d="M103.18,120.16c21-4.28,42-24.57,42-54.48,0-39.16-26.7-60.52-64.8-60.52H7.12V15.84H80.39c34.89,0,52.33,22.79,52.33,49.84,0,27.42-17.44,49.49-52.33,49.49H76.73v10.68h5.08c37,0,55.54,26,55.54,53.05,0,32.4-20.65,53-55.54,53H7.12v10.68H81.81c41.66,0,68-23.5,68-64.08C149.82,151.13,128.45,124.07,103.18,120.16Z"/><rect class="cls-1" x="5" y="58.5" width="74.76" height="10.68"/><rect class="cls-1" x="-5.19" y="15.19" width="31.07" height="10.68" transform="translate(30.87 10.19) rotate(90)"/><rect class="cls-1" x="-5.19" y="221.96" width="31.07" height="10.68" transform="translate(237.64 216.96) rotate(90)"/><rect class="cls-1" x="5" y="115.22" width="37.38" height="10.68"/><rect class="cls-1" x="5" y="171.94" width="74.76" height="10.68"/></g></g></svg>